<svg width="24" height="24" viewBox="0 0 24 24" fill="none" xmlns="http://www.w3.org/2000/svg">
<path d="M19.3898 7.60832C19.3734 7.60832 19.3488 7.60832 19.3241 7.60832C14.983 7.16665 10.6501 6.99999 6.35815 7.44165L4.68406 7.60832C4.3394 7.64165 4.03576 7.39165 4.00294 7.04165C3.97011 6.69165 4.2163 6.39165 4.55276 6.35832L6.22685 6.19165C10.5926 5.74165 15.0158 5.91665 19.4472 6.35832C19.7837 6.39165 20.0299 6.69999 19.9971 7.04165C19.9724 7.36665 19.7016 7.60832 19.3898 7.60832Z" fill="#1E1E1E"/>
<path d="M9.13189 6.76667C9.09906 6.76667 9.06624 6.76667 9.0252 6.75834C8.69695 6.70001 8.46717 6.37501 8.52462 6.04167L8.70516 4.95001C8.83646 4.15001 9.017 3.04167 10.9291 3.04167H13.0791C14.9994 3.04167 15.1799 4.19167 15.303 4.95834L15.4836 6.04167C15.541 6.38334 15.3112 6.70834 14.983 6.75834C14.6465 6.81667 14.3265 6.58334 14.2773 6.25001L14.0967 5.16667C13.9818 4.44167 13.9572 4.30001 13.0873 4.30001H10.9373C10.0674 4.30001 10.051 4.41667 9.9279 5.15834L9.73915 6.24167C9.68992 6.55001 9.42731 6.76667 9.13189 6.76667Z" fill="#1E1E1E"/>
<path d="M14.6383 20.9583H9.36988C6.50587 20.9583 6.39098 19.35 6.30071 18.05L5.7673 9.65832C5.74268 9.31665 6.00529 9.01665 6.34174 8.99165C6.68641 8.97499 6.97363 9.23332 6.99825 9.57499L7.53166 17.9667C7.62193 19.2333 7.65476 19.7083 9.36988 19.7083H14.6383C16.3617 19.7083 16.3945 19.2333 16.4766 17.9667L17.01 9.57499C17.0346 9.23332 17.33 8.97499 17.6665 8.99165C18.0029 9.01665 18.2655 9.30832 18.2409 9.65832L17.7075 18.05C17.6172 19.35 17.5023 20.9583 14.6383 20.9583Z" fill="#1E1E1E"/>
<path d="M13.3664 16.375H10.6337C10.2972 16.375 10.0182 16.0917 10.0182 15.75C10.0182 15.4083 10.2972 15.125 10.6337 15.125H13.3664C13.7028 15.125 13.9818 15.4083 13.9818 15.75C13.9818 16.0917 13.7028 16.375 13.3664 16.375Z" fill="#1E1E1E"/>
<path d="M14.0557 13.0417H9.95252C9.61606 13.0417 9.33705 12.7583 9.33705 12.4167C9.33705 12.075 9.61606 11.7917 9.95252 11.7917H14.0557C14.3921 11.7917 14.6712 12.075 14.6712 12.4167C14.6712 12.7583 14.3921 13.0417 14.0557 13.0417Z" fill="#1E1E1E"/>
</svg>
